<svg width="54" height="64" viewBox="0 0 54 64" fill="none" xmlns="http://www.w3.org/2000/svg">
<path d="M28.2579 0.032C29.4739 0.224 30.6899 0.352 31.8739 0.64C40.1939 2.624 45.8259 7.68 48.9619 15.584C49.1219 16 49.3139 16.384 49.5379 16.736C50.1459 17.728 50.4659 18.816 50.4659 20C50.4659 22.56 50.4659 25.12 50.4659 27.68C50.4659 31.136 48.1619 33.632 44.7059 33.824C43.2339 33.92 41.7619 33.824 40.1619 33.824C42.3379 30.816 43.3299 27.52 43.3299 23.936C43.3299 20.352 42.3699 17.056 40.1619 14.016C41.4739 14.016 42.6899 14.016 43.9699 14.016C41.4099 8.768 35.2659 4.192 27.7459 3.776C18.5299 3.264 11.7779 8.544 8.99391 13.984C10.2419 13.984 11.4899 13.984 12.7059 13.984C8.57792 20.608 8.57792 27.168 12.7059 33.824C12.4819 33.824 12.2579 33.824 12.0339 33.824C10.6899 33.824 9.37791 33.856 8.03391 33.76C5.02591 33.536 2.72191 31.424 2.59391 28.416C2.43391 25.312 2.56191 22.208 2.59391 19.136C2.59391 18.624 2.78592 18.08 3.00992 17.568C3.74592 15.936 4.44991 14.304 5.31391 12.736C9.15391 5.568 15.1699 1.44 23.2019 0.224C23.7139 0.16 24.2259 0.064 24.7379 0C25.9219 0.032 27.0739 0.032 28.2579 0.032Z" fill="#E5E5E5"/>
<path d="M25.1219 37.0561C23.7459 36.6081 22.2419 36.2881 20.8979 35.6481C15.8419 33.2161 13.346 29.0881 13.41 23.4881C13.474 18.4001 16.8339 13.6001 21.5379 11.7761C31.4899 7.87206 40.322 16.0961 39.586 25.0561C39.5219 25.8561 39.2659 26.6561 39.1379 27.4561C39.0739 27.9361 38.8179 28.0641 38.3379 28.0641C35.8099 28.0321 33.3139 28.0321 30.786 28.0641C29.634 28.0641 28.9299 28.5441 28.7379 29.5041C28.4819 30.6561 29.1539 31.6801 30.3379 31.7761C31.3619 31.8721 32.4179 31.8081 33.4419 31.8081C34.5619 31.8081 35.6819 31.8081 36.9619 31.8081C35.8099 33.3441 34.4979 34.4961 32.9619 35.3601C31.4259 36.2241 29.7299 36.7361 28.0019 36.9921C29.1219 37.1521 30.2419 37.2481 31.3619 37.4401C38.3059 38.6561 43.8419 42.2081 48.066 47.7761C50.402 50.8481 52.034 54.2721 52.866 58.0161C53.57 61.1201 51.49 63.8401 48.29 63.9041C45.794 63.9681 43.2979 63.9361 40.8019 63.9361C28.8659 63.9361 16.8979 63.9361 4.96195 63.9361C2.49795 63.9361 0.609945 62.4961 0.0979449 60.1921C-0.126055 59.1361 0.065941 58.1121 0.353941 57.1201C3.23394 47.5201 9.37796 41.0561 19.01 38.0801C20.802 37.5361 22.7219 37.4081 24.5779 37.0881C24.7699 37.0881 24.9619 37.0881 25.1219 37.0561C25.1859 36.9921 25.1539 37.0561 25.1219 37.0561Z" fill="#E5E5E5"/>
</svg>
