<svg width="64" height="64" viewBox="0 0 64 64" fill="none" xmlns="http://www.w3.org/2000/svg">
<path d="M0 64.0001C0 62.7841 0 61.5361 0 60.2881C1.248 60.2881 2.432 60.2881 3.712 60.2881C3.712 53.9521 3.712 47.6481 3.712 41.3121C7.552 41.3121 11.296 41.3121 15.104 41.3121C15.104 47.6161 15.104 53.8881 15.104 60.2241C16.352 60.2241 17.568 60.2241 18.848 60.2241C18.848 50.1761 18.848 40.1281 18.848 30.0481C22.624 30.0481 26.304 30.0481 30.08 30.0481C30.08 40.0961 30.08 50.1441 30.08 60.2241C31.36 60.2241 32.576 60.2241 33.824 60.2241C33.824 52.6721 33.824 45.1521 33.824 37.5681C37.6 37.5681 41.312 37.5681 45.088 37.5681C45.088 45.1201 45.088 52.6721 45.088 60.2241C46.368 60.2241 47.552 60.2241 48.832 60.2241C48.832 47.6801 48.832 35.1361 48.832 22.5601C52.672 22.5601 56.416 22.5601 60.224 22.5601C60.224 35.1041 60.224 47.6481 60.224 60.2561C61.504 60.2561 62.752 60.2561 64 60.2561C64 61.5041 64 62.7521 64 64.0001C42.656 64.0001 21.344 64.0001 0 64.0001Z" fill="#E5E5E5"/>
<path d="M63.9998 15.008C62.7838 15.008 61.5358 15.008 60.2558 15.008C60.2558 12.16 60.2558 9.376 60.2558 6.4C53.2798 13.344 46.3998 20.16 39.5518 26.976C34.5598 21.984 29.5998 17.024 24.5438 11.968C17.3758 19.072 10.3038 26.112 3.23184 33.152C2.33584 32.256 1.47184 31.424 0.73584 30.656C8.57584 22.688 16.4478 14.688 24.3518 6.688C29.4398 11.776 34.4318 16.768 39.4878 21.824C45.4718 15.712 51.3598 9.696 57.1518 3.776C54.5918 3.776 51.7438 3.776 48.8958 3.776C48.8958 2.496 48.8958 1.312 48.8958 0C53.9198 0 58.9438 0 63.9998 0C63.9998 4.992 63.9998 10.016 63.9998 15.008Z" fill="#E5E5E5"/>
</svg>
