<svg width="60" height="60" viewBox="0 0 60 60" fill="none" xmlns="http://www.w3.org/2000/svg">
<path d="M53.6839 28.4166H59.9998C59.9998 12.2173 47.7691 0 31.5469 0V6.3155C44.3744 6.3155 53.6839 15.6088 53.6839 28.4166Z" fill="#666666"/>
<path d="M31.5801 18.9497C38.2212 18.9497 41.0539 21.7822 41.0539 28.4229H47.3697C47.3697 18.2392 41.7644 12.6342 31.5801 12.6342V18.9497ZM42.3865 36.1373C41.7797 35.5858 40.9824 35.2917 40.1628 35.317C39.3431 35.3424 38.5655 35.6852 37.9939 36.2731L30.437 44.0443C28.618 43.697 24.9611 42.557 21.1969 38.8025C17.4326 35.0353 16.2926 31.3691 15.9547 29.5629L23.7201 22.0032C24.3087 21.4321 24.6521 20.6543 24.6774 19.8345C24.7028 19.0147 24.4081 18.2172 23.8558 17.6108L12.1873 4.78086C11.6348 4.17254 10.8669 3.80355 10.0467 3.75226C9.22653 3.70096 8.41865 3.9714 7.79465 4.50614L0.941952 10.3827C0.395982 10.9306 0.0701107 11.6599 0.0261538 12.4321C-0.021215 13.2215 -0.924381 31.9217 13.5768 46.4284C26.2274 59.0752 42.0739 60.0005 46.4382 60.0005C47.0761 60.0005 47.4676 59.9815 47.5718 59.9752C48.344 59.932 49.0729 59.6047 49.6182 59.0563L55.4919 52.2008C56.0271 51.5772 56.2981 50.7696 56.2474 49.9495C56.1967 49.1294 55.8282 48.3613 55.2203 47.8084L42.3865 36.1373Z" fill="#666666"/>
</svg>
