<svg width="60" height="60" viewBox="0 0 60 60" fill="none" xmlns="http://www.w3.org/2000/svg">
<path d="M8.57143 6.42857C8.57143 4.72361 9.24872 3.08848 10.4543 1.88289C11.6599 0.677294 13.295 0 15 0H45C46.705 0 48.3401 0.677294 49.5457 1.88289C50.7513 3.08848 51.4286 4.72361 51.4286 6.42857V17.1429H47.1429V6.42857C47.1429 5.86025 46.9171 5.31521 46.5152 4.91334C46.1134 4.51148 45.5683 4.28571 45 4.28571H15C14.4317 4.28571 13.8866 4.51148 13.4848 4.91334C13.0829 5.31521 12.8571 5.86025 12.8571 6.42857V21.4286H36.4286C35.0348 23.2817 34.2826 25.5384 34.2857 27.8571V53.5714C34.2857 55.9843 35.0829 58.2086 36.4286 60H6.42857C4.72361 60 3.08848 59.3227 1.88289 58.1171C0.677294 56.9115 0 55.2764 0 53.5714V30C0 27.7267 0.903058 25.5465 2.51051 23.9391C4.11797 22.3316 6.29814 21.4286 8.57143 21.4286V6.42857ZM13.9286 32.6786C13.9286 31.9682 13.6464 31.2869 13.144 30.7845C12.6417 30.2822 11.9604 30 11.25 30C10.5396 30 9.85829 30.2822 9.35596 30.7845C8.85363 31.2869 8.57143 31.9682 8.57143 32.6786C8.57143 33.389 8.85363 34.0703 9.35596 34.5726C9.85829 35.0749 10.5396 35.3571 11.25 35.3571C11.9604 35.3571 12.6417 35.0749 13.144 34.5726C13.6464 34.0703 13.9286 33.389 13.9286 32.6786ZM13.9286 42.3214C13.9286 41.611 13.6464 40.9297 13.144 40.4274C12.6417 39.9251 11.9604 39.6429 11.25 39.6429C10.5396 39.6429 9.85829 39.9251 9.35596 40.4274C8.85363 40.9297 8.57143 41.611 8.57143 42.3214C8.57143 43.0318 8.85363 43.7131 9.35596 44.2155C9.85829 44.7178 10.5396 45 11.25 45C11.9604 45 12.6417 44.7178 13.144 44.2155C13.6464 43.7131 13.9286 43.0318 13.9286 42.3214ZM20.8929 40.1786C20.1825 40.1786 19.5012 40.4608 18.9988 40.9631C18.4965 41.4654 18.2143 42.1467 18.2143 42.8571C18.2143 43.5675 18.4965 44.2489 18.9988 44.7512C19.5012 45.2535 20.1825 45.5357 20.8929 45.5357C21.6033 45.5357 22.2846 45.2535 22.7869 44.7512C23.2892 44.2489 23.5714 43.5675 23.5714 42.8571C23.5714 42.1467 23.2892 41.4654 22.7869 40.9631C22.2846 40.4608 21.6033 40.1786 20.8929 40.1786ZM23.5714 32.6786C23.5714 31.9682 23.2892 31.2869 22.7869 30.7845C22.2846 30.2822 21.6033 30 20.8929 30C20.1825 30 19.5012 30.2822 18.9988 30.7845C18.4965 31.2869 18.2143 31.9682 18.2143 32.6786C18.2143 33.389 18.4965 34.0703 18.9988 34.5726C19.5012 35.0749 20.1825 35.3571 20.8929 35.3571C21.6033 35.3571 22.2846 35.0749 22.7869 34.5726C23.2892 34.0703 23.5714 33.389 23.5714 32.6786ZM45 21.4286C43.295 21.4286 41.6599 22.1059 40.4543 23.3115C39.2487 24.517 38.5714 26.1522 38.5714 27.8571V53.5714C38.5714 55.2764 39.2487 56.9115 40.4543 58.1171C41.6599 59.3227 43.295 60 45 60H53.5714C55.2764 60 56.9115 59.3227 58.1171 58.1171C59.3227 56.9115 60 55.2764 60 53.5714V27.8571C60 26.1522 59.3227 24.517 58.1171 23.3115C56.9115 22.1059 55.2764 21.4286 53.5714 21.4286H45Z" fill="#666666"/>
</svg>
