<svg width="148" height="30" viewBox="0 0 148 30" fill="none" xmlns="http://www.w3.org/2000/svg">
<path d="M93.6097 0C85.3482 0 78.6257 6.72058 78.6257 14.983C78.6257 23.2454 85.3482 29.966 93.6097 29.966C101.871 29.966 108.594 23.2454 108.594 14.983C108.594 6.72058 101.871 0 93.6097 0ZM93.6097 28.968C85.8986 28.968 79.6256 22.6941 79.6256 14.983C79.6256 7.2719 85.8986 0.997995 93.6097 0.997995C101.321 0.997995 107.594 7.2719 107.594 14.983C107.594 22.6941 101.321 28.968 93.6097 28.968Z" fill="black"/>
<path d="M97.7856 7.47927H95.2925C92.1172 7.4475 91.7117 9.41265 91.7117 11.5395V13.086H90.31C90.2466 13.0775 90.1822 13.0838 90.1216 13.1043C90.0611 13.1248 90.0061 13.1589 89.9609 13.2041C89.9157 13.2493 89.8815 13.3043 89.8611 13.3649C89.8406 13.4254 89.8343 13.4899 89.8428 13.5532V16.3566C89.8343 16.4199 89.8406 16.4844 89.8611 16.5449C89.8815 16.6055 89.9157 16.6605 89.9609 16.7057C90.0061 16.7509 90.0611 16.785 90.1216 16.8055C90.1822 16.826 90.2466 16.8323 90.31 16.8238H91.7117V23.8322C91.7039 23.8956 91.7107 23.9601 91.7316 24.0205C91.7525 24.0809 91.787 24.1358 91.8323 24.1808C91.8777 24.2259 91.9327 24.26 91.9933 24.2806C92.0538 24.3011 92.1183 24.3076 92.1817 24.2994H95.0365C95.3121 24.3312 95.5355 24.1078 95.4476 23.8322L95.4495 16.8238H97.7856C97.849 16.8323 97.9134 16.826 97.974 16.8055C98.0345 16.785 98.0895 16.7509 98.1347 16.7057C98.1799 16.6605 98.2141 16.6055 98.2346 16.5449C98.255 16.4844 98.2613 16.4199 98.2528 16.3566V13.5532C98.2613 13.4899 98.255 13.4254 98.2346 13.3649C98.2141 13.3043 98.1799 13.2493 98.1347 13.2041C98.0895 13.1589 98.0345 13.1248 97.974 13.1043C97.9134 13.0838 97.849 13.0775 97.7856 13.086H95.4467L95.4495 11.6843C95.5401 11.0872 95.5401 11.1844 96.0943 11.2171H97.766C97.8959 11.1881 98.0342 11.204 98.1314 11.1096C98.2285 11.0152 98.2846 10.8863 98.2519 10.7499V7.9465C98.2605 7.8832 98.2544 7.81876 98.2341 7.75821C98.2137 7.69765 98.1796 7.64262 98.1345 7.5974C98.0893 7.55218 98.0344 7.51799 97.9739 7.4975C97.9134 7.47701 97.8489 7.47077 97.7856 7.47927ZM97.2857 10.2303L96.1139 10.1854C94.6627 10.1854 94.5412 10.9732 94.5412 11.7796L94.5375 13.5513C94.5373 13.6169 94.5502 13.6819 94.5752 13.7426C94.6002 13.8032 94.6369 13.8584 94.6833 13.9048C94.7296 13.9512 94.7847 13.9881 94.8453 14.0132C94.9059 14.0383 94.9708 14.0513 95.0365 14.0513H97.3184V15.8566H95.0383C94.9059 15.8566 94.7789 15.9092 94.6851 16.0027C94.5914 16.0963 94.5386 16.2232 94.5384 16.3556L94.5375 23.365H92.6461V16.3566C92.6461 16.0809 92.4583 15.8576 92.1817 15.8576H90.7772V14.0522H92.1817C92.2473 14.0523 92.3122 14.0395 92.3728 14.0145C92.4334 13.9895 92.4885 13.9527 92.5349 13.9064C92.6284 13.8121 92.6452 13.685 92.6452 13.5523V11.5385C92.6452 9.44349 93.0685 8.4455 95.2916 8.4455H97.2847V10.2303H97.2857Z" fill="black"/>
<path fill-rule="evenodd" clip-rule="evenodd" d="M14.2039 13.9033H16.6333V15.1134C16.9833 14.4174 17.8807 13.7921 19.2288 13.7921C21.8132 13.7921 22.4268 15.1775 22.4268 17.7194V22.4271H19.8103V18.2983C19.8103 16.8507 19.4604 16.0344 18.5695 16.0344C17.3339 16.0344 16.8204 16.9142 16.8204 18.2976V22.4271H14.2039V13.9033ZM9.71733 22.3159H12.3338V13.7921H9.71733V22.3159ZM12.7086 11.0127C12.7087 11.232 12.6652 11.4492 12.5806 11.6515C12.4961 11.8539 12.3722 12.0374 12.2161 12.1914C11.8997 12.5058 11.4715 12.6818 11.0256 12.6807C10.5804 12.6804 10.1532 12.5049 9.83638 12.1921C9.68084 12.0375 9.55732 11.8538 9.47291 11.6514C9.38851 11.449 9.34486 11.232 9.34448 11.0127C9.34448 10.5699 9.52109 10.146 9.83703 9.83335C10.1535 9.52013 10.5809 9.34453 11.0262 9.34473C11.4723 9.34473 11.9001 9.52068 12.2161 9.83335C12.5313 10.146 12.7086 10.5699 12.7086 11.0127Z" fill="black"/>
<path d="M14.9839 0C6.72245 0 0 6.72058 0 14.983C0 23.2454 6.72245 29.966 14.9839 29.966C23.2454 29.966 29.9679 23.2454 29.9679 14.983C29.9679 6.72058 23.2454 0 14.9839 0ZM14.9839 28.968C7.27284 28.968 0.999863 22.6941 0.999863 14.983C0.999863 7.2719 7.27284 0.997995 14.9839 0.997995C22.695 0.997995 28.968 7.2719 28.968 14.983C28.968 22.6941 22.695 28.968 14.9839 28.968Z" fill="black"/>
<path d="M62.0459 10.8212C62.1496 10.6293 62.235 10.4281 62.3011 10.2203C62.3316 10.1239 62.3322 10.0205 62.3028 9.92374C62.2734 9.82698 62.2153 9.74142 62.1363 9.67836C62.0572 9.61529 61.9609 9.57768 61.86 9.57051C61.7591 9.56333 61.6584 9.58691 61.5712 9.63814C61.0924 9.9226 60.5741 10.1345 60.0331 10.267C59.3765 9.67438 58.5236 9.34582 57.6391 9.34473C57.1585 9.3451 56.683 9.4425 56.2409 9.6311C55.7989 9.8197 55.3995 10.0956 55.0667 10.4423C54.7339 10.789 54.4745 11.1993 54.3041 11.6486C54.1337 12.098 54.0558 12.5771 54.0751 13.0573C51.9735 12.7927 50.0544 11.7293 48.716 10.0876C48.6647 10.0254 48.5992 9.97652 48.5249 9.94507C48.4507 9.91363 48.37 9.90056 48.2897 9.90698C48.2093 9.9134 48.1317 9.93912 48.0634 9.98196C47.9951 10.0248 47.9382 10.0835 47.8974 10.153C47.5909 10.6791 47.4244 11.2748 47.4136 11.8835C47.4028 12.4922 47.5481 13.0936 47.8357 13.6301C47.7652 13.642 47.6974 13.6667 47.6358 13.703C47.5602 13.7512 47.498 13.8176 47.4549 13.8962C47.4118 13.9747 47.3891 14.0629 47.3891 14.1525C47.3891 15.2131 47.861 16.1868 48.6216 16.8484L48.5889 16.8811C48.5315 16.946 48.492 17.0248 48.4743 17.1097C48.4566 17.1946 48.4613 17.2826 48.488 17.3651C48.6466 17.8599 48.9114 18.3141 49.264 18.6959C49.6165 19.0776 50.0482 19.3777 50.5288 19.5751C49.5417 20.0567 48.4369 20.2445 47.3461 20.1162C47.234 20.1047 47.1212 20.1308 47.0255 20.1903C46.9298 20.2499 46.8565 20.3395 46.8172 20.4451C46.7794 20.5515 46.7787 20.6675 46.8152 20.7744C46.8516 20.8813 46.9231 20.9727 47.0181 21.0338C48.5011 21.9856 50.2263 22.4912 51.9884 22.4906C57.7634 22.4906 61.2152 17.7996 61.2152 13.2648L61.2143 13.1115C61.774 12.6746 62.2601 12.1509 62.6543 11.5603C62.714 11.471 62.7433 11.3649 62.738 11.2576C62.7327 11.1504 62.6929 11.0477 62.6247 10.9648C62.5564 10.8818 62.4633 10.8231 62.3591 10.7972C62.2548 10.7714 62.145 10.7798 62.0459 10.8212ZM60.4153 12.4611C60.3475 12.5099 60.293 12.5749 60.2568 12.6501C60.2205 12.7254 60.2037 12.8085 60.2079 12.8919C60.2135 13.0153 60.2163 13.1405 60.2163 13.2638C60.2163 17.3081 57.1391 21.4917 51.9894 21.4917C51.0709 21.4921 50.1589 21.3379 49.2916 21.0357C50.3303 20.8366 51.3061 20.3912 52.137 19.7368C52.2179 19.673 52.2771 19.5858 52.3066 19.4871C52.336 19.3884 52.3342 19.283 52.3015 19.1853C52.2688 19.0877 52.2067 19.0025 52.1237 18.9415C52.0408 18.8804 51.941 18.8465 51.838 18.8444C51.4351 18.8367 51.0396 18.7344 50.6835 18.5458C50.3274 18.3572 50.0206 18.0875 49.7878 17.7585C50.0242 17.7426 50.256 17.7034 50.4812 17.6427C50.5902 17.6135 50.6861 17.5482 50.7532 17.4576C50.8203 17.3669 50.8548 17.2561 50.8509 17.1434C50.847 17.0306 50.805 16.9225 50.7317 16.8367C50.6585 16.7509 50.5583 16.6924 50.4475 16.6708C49.9925 16.5783 49.5711 16.3637 49.2286 16.0502C48.8861 15.7366 48.6353 15.3358 48.5029 14.8907C48.7515 14.9533 49.0066 14.9897 49.2617 14.9982C49.4813 14.9972 49.685 14.8627 49.7532 14.6515C49.8214 14.4403 49.7411 14.2076 49.5551 14.0843C49.1154 13.7913 48.7769 13.3698 48.5857 12.8773C48.3946 12.3847 48.3601 11.8452 48.4871 11.3323C50.1102 12.9978 52.302 13.9896 54.6245 14.1095C54.789 14.1104 54.9329 14.0516 55.0329 13.931C55.1329 13.8105 55.1712 13.6507 55.1357 13.4974C55.0079 12.947 55.065 12.3699 55.2983 11.8552C55.5316 11.3406 55.928 10.9172 56.4262 10.6506C56.9243 10.3839 57.4965 10.2889 58.0541 10.3802C58.6117 10.4715 59.1237 10.7441 59.5108 11.1557C59.5688 11.2176 59.6416 11.2637 59.7224 11.2897C59.8031 11.3157 59.8892 11.3207 59.9724 11.3043C60.1266 11.2734 60.2789 11.2379 60.4293 11.1968C60.3615 11.2476 60.291 11.2947 60.2182 11.3379C60.1213 11.3973 60.0475 11.4879 60.009 11.5948C59.9704 11.7017 59.9695 11.8185 60.0063 11.926C60.0431 12.0336 60.1154 12.1253 60.2113 12.1863C60.3072 12.2472 60.4211 12.2736 60.534 12.2612L60.7041 12.2397C60.6104 12.3168 60.5141 12.3907 60.4153 12.4611Z" fill="black"/>
<path d="M54.2967 0C46.0352 0 39.3127 6.72058 39.3127 14.983C39.3127 23.2454 46.0352 29.966 54.2967 29.966C62.5582 29.966 69.2806 23.2454 69.2806 14.983C69.2806 6.72058 62.5582 0 54.2967 0ZM54.2967 28.968C46.5856 28.968 40.3126 22.6941 40.3126 14.983C40.3126 7.2719 46.5856 0.997995 54.2967 0.997995C62.0078 0.997995 68.2807 7.2719 68.2807 14.983C68.2807 22.6941 62.0078 28.968 54.2967 28.968Z" fill="black"/>
<path d="M135.632 14.1483C135.682 14.4313 135.718 14.7143 135.718 15.0814C135.718 18.2864 133.703 20.5581 130.669 20.5581C127.765 20.5581 125.413 18.0493 125.413 14.9514C125.413 11.8536 127.765 9.34473 130.669 9.34473C132.089 9.34473 133.272 9.89544 134.19 10.8133L132.763 12.2743C132.376 11.8765 131.695 11.41 130.669 11.41C128.877 11.41 127.414 12.9933 127.414 14.9514C127.414 16.9096 128.877 18.4929 130.669 18.4929C132.749 18.4929 133.531 16.8943 133.652 16.0758H130.669V14.1482H135.632V14.1483ZM140.707 14.3362V12.7088H139.174V14.3362H137.649V15.9716H139.174V17.5991H140.707V15.9716H142.233V14.3362H140.707Z" fill="black"/>
<path d="M132.921 0C124.66 0 117.938 6.72058 117.938 14.983C117.938 23.2454 124.66 29.966 132.921 29.966C141.183 29.966 147.905 23.2454 147.905 14.983C147.905 6.72058 141.183 0 132.921 0ZM132.921 28.968C125.21 28.968 118.937 22.6941 118.937 14.983C118.937 7.2719 125.21 0.997995 132.921 0.997995C140.633 0.997995 146.906 7.2719 146.906 14.983C146.906 22.6941 140.633 28.968 132.921 28.968Z" fill="black"/>
</svg>
