<svg width="109" height="30" viewBox="0 0 109 30" fill="none" xmlns="http://www.w3.org/2000/svg">
<path d="M93.6099 0C85.3484 0 78.626 6.72058 78.626 14.983C78.626 23.2454 85.3484 29.966 93.6099 29.966C101.871 29.966 108.594 23.2454 108.594 14.983C108.594 6.72058 101.871 0 93.6099 0ZM93.6099 28.968C85.8988 28.968 79.6258 22.6941 79.6258 14.983C79.6258 7.2719 85.8988 0.997995 93.6099 0.997995C101.321 0.997995 107.594 7.2719 107.594 14.983C107.594 22.6941 101.321 28.968 93.6099 28.968Z" fill="black"/>
<path d="M97.7863 7.47927H95.2932C92.118 7.4475 91.7124 9.41265 91.7124 11.5395V13.086H90.3107C90.2474 13.0775 90.1829 13.0838 90.1224 13.1043C90.0618 13.1248 90.0068 13.1589 89.9616 13.2041C89.9164 13.2493 89.8823 13.3043 89.8618 13.3649C89.8413 13.4254 89.835 13.4899 89.8435 13.5532V16.3566C89.835 16.4199 89.8413 16.4844 89.8618 16.5449C89.8823 16.6055 89.9164 16.6605 89.9616 16.7057C90.0068 16.7509 90.0618 16.785 90.1224 16.8055C90.1829 16.826 90.2474 16.8323 90.3107 16.8238H91.7124V23.8322C91.7046 23.8956 91.7114 23.9601 91.7324 24.0205C91.7533 24.0809 91.7877 24.1358 91.8331 24.1808C91.8784 24.2259 91.9335 24.26 91.994 24.2806C92.0546 24.3011 92.119 24.3076 92.1824 24.2994H95.0372C95.3129 24.3312 95.5362 24.1078 95.4483 23.8322L95.4502 16.8238H97.7863C97.8497 16.8323 97.9141 16.826 97.9747 16.8055C98.0352 16.785 98.0902 16.7509 98.1354 16.7057C98.1806 16.6605 98.2148 16.6055 98.2353 16.5449C98.2558 16.4844 98.262 16.4199 98.2536 16.3566V13.5532C98.262 13.4899 98.2558 13.4254 98.2353 13.3649C98.2148 13.3043 98.1806 13.2493 98.1354 13.2041C98.0902 13.1589 98.0352 13.1248 97.9747 13.1043C97.9141 13.0838 97.8497 13.0775 97.7863 13.086H95.4474L95.4502 11.6843C95.5409 11.0872 95.5409 11.1844 96.095 11.2171H97.7667C97.8966 11.1881 98.0349 11.204 98.1321 11.1096C98.2293 11.0152 98.2853 10.8863 98.2526 10.7499V7.9465C98.2613 7.8832 98.2552 7.81876 98.2348 7.75821C98.2144 7.69765 98.1803 7.64262 98.1352 7.5974C98.0901 7.55218 98.0351 7.51799 97.9746 7.4975C97.9141 7.47701 97.8497 7.47077 97.7863 7.47927ZM97.2864 10.2303L96.1146 10.1854C94.6634 10.1854 94.5419 10.9732 94.5419 11.7796L94.5382 13.5513C94.5381 13.6169 94.5509 13.6819 94.5759 13.7426C94.6009 13.8032 94.6377 13.8584 94.684 13.9048C94.7304 13.9512 94.7854 13.9881 94.846 14.0132C94.9066 14.0383 94.9716 14.0513 95.0372 14.0513H97.3191V15.8566H95.0391C94.9066 15.8566 94.7796 15.9092 94.6859 16.0027C94.5922 16.0963 94.5394 16.2232 94.5391 16.3556L94.5382 23.365H92.6469V16.3566C92.6469 16.0809 92.459 15.8576 92.1824 15.8576H90.778V14.0522H92.1824C92.248 14.0523 92.3129 14.0395 92.3736 14.0145C92.4342 13.9895 92.4892 13.9527 92.5357 13.9064C92.6291 13.8121 92.6459 13.685 92.6459 13.5523V11.5385C92.6459 9.44349 93.0692 8.4455 95.2923 8.4455H97.2855V10.2303H97.2864Z" fill="black"/>
<path fill-rule="evenodd" clip-rule="evenodd" d="M14.2042 13.9033H16.6335V15.1134C16.9835 14.4174 17.8809 13.7921 19.2291 13.7921C21.8135 13.7921 22.4271 15.1775 22.4271 17.7194V22.4271H19.8106V18.2983C19.8106 16.8507 19.4606 16.0344 18.5697 16.0344C17.3341 16.0344 16.8206 16.9142 16.8206 18.2976V22.4271H14.2042V13.9033ZM9.71757 22.3159H12.334V13.7921H9.71757V22.3159ZM12.7088 11.0127C12.7089 11.232 12.6654 11.4492 12.5809 11.6515C12.4963 11.8539 12.3724 12.0374 12.2163 12.1914C11.9 12.5058 11.4718 12.6818 11.0258 12.6807C10.5806 12.6804 10.1534 12.5049 9.83662 12.1921C9.68108 12.0375 9.55757 11.8538 9.47316 11.6514C9.38875 11.449 9.34511 11.232 9.34473 11.0127C9.34473 10.5699 9.52134 10.146 9.83728 9.83335C10.1538 9.52013 10.5812 9.34453 11.0265 9.34473C11.4726 9.34473 11.9004 9.52068 12.2163 9.83335C12.5316 10.146 12.7088 10.5699 12.7088 11.0127Z" fill="black"/>
<path d="M14.9839 0C6.72245 0 0 6.72058 0 14.983C0 23.2454 6.72245 29.966 14.9839 29.966C23.2454 29.966 29.9679 23.2454 29.9679 14.983C29.9679 6.72058 23.2454 0 14.9839 0ZM14.9839 28.968C7.27284 28.968 0.999863 22.6941 0.999863 14.983C0.999863 7.2719 7.27284 0.997995 14.9839 0.997995C22.695 0.997995 28.968 7.2719 28.968 14.983C28.968 22.6941 22.695 28.968 14.9839 28.968Z" fill="black"/>
<path d="M62.0457 10.8212C62.1493 10.6293 62.2348 10.4281 62.3008 10.2203C62.3314 10.1239 62.332 10.0205 62.3026 9.92374C62.2732 9.82698 62.2151 9.74142 62.136 9.67836C62.057 9.61529 61.9606 9.57768 61.8598 9.57051C61.7589 9.56333 61.6582 9.58691 61.571 9.63814C61.0922 9.9226 60.5738 10.1345 60.0329 10.267C59.3762 9.67438 58.5234 9.34582 57.6388 9.34473C57.1583 9.3451 56.6827 9.4425 56.2407 9.6311C55.7987 9.8197 55.3993 10.0956 55.0665 10.4423C54.7337 10.789 54.4743 11.1993 54.3039 11.6486C54.1335 12.098 54.0556 12.5771 54.0748 13.0573C51.9733 12.7927 50.0542 11.7293 48.7157 10.0876C48.6645 10.0254 48.5989 9.97652 48.5247 9.94507C48.4505 9.91363 48.3698 9.90056 48.2894 9.90698C48.2091 9.9134 48.1314 9.93912 48.0631 9.98196C47.9949 10.0248 47.9379 10.0835 47.8972 10.153C47.5907 10.6791 47.4241 11.2748 47.4133 11.8835C47.4025 12.4922 47.5479 13.0936 47.8355 13.6301C47.765 13.642 47.6972 13.6667 47.6355 13.703C47.56 13.7512 47.4978 13.8176 47.4546 13.8962C47.4115 13.9747 47.3889 14.0629 47.3888 14.1525C47.3888 15.2131 47.8607 16.1868 48.6214 16.8484L48.5887 16.8811C48.5312 16.946 48.4917 17.0248 48.474 17.1097C48.4563 17.1946 48.4611 17.2826 48.4877 17.3651C48.6464 17.8599 48.9112 18.3141 49.2637 18.6959C49.6162 19.0776 50.0479 19.3777 50.5286 19.5751C49.5414 20.0567 48.4367 20.2445 47.3458 20.1162C47.2337 20.1047 47.121 20.1308 47.0252 20.1903C46.9295 20.2499 46.8563 20.3395 46.8169 20.4451C46.7792 20.5515 46.7785 20.6675 46.8149 20.7744C46.8514 20.8813 46.9229 20.9727 47.0178 21.0338C48.5008 21.9856 50.2261 22.4912 51.9882 22.4906C57.7631 22.4906 61.215 17.7996 61.215 13.2648L61.214 13.1115C61.7737 12.6746 62.2599 12.1509 62.654 11.5603C62.7137 11.471 62.7431 11.3649 62.7377 11.2576C62.7324 11.1504 62.6927 11.0477 62.6244 10.9648C62.5562 10.8818 62.4631 10.8231 62.3588 10.7972C62.2546 10.7714 62.1448 10.7798 62.0457 10.8212ZM60.4151 12.4611C60.3473 12.5099 60.2928 12.5749 60.2565 12.6501C60.2203 12.7254 60.2035 12.8085 60.2076 12.8919C60.2132 13.0153 60.216 13.1405 60.216 13.2638C60.216 17.3081 57.1389 21.4917 51.9891 21.4917C51.0707 21.4921 50.1587 21.3379 49.2914 21.0357C50.3301 20.8366 51.3059 20.3912 52.1368 19.7368C52.2177 19.673 52.2769 19.5858 52.3063 19.4871C52.3358 19.3884 52.334 19.283 52.3013 19.1853C52.2685 19.0877 52.2065 19.0025 52.1235 18.9415C52.0405 18.8804 51.9407 18.8465 51.8378 18.8444C51.4348 18.8367 51.0394 18.7344 50.6833 18.5458C50.3271 18.3572 50.0203 18.0875 49.7876 17.7585C50.024 17.7426 50.2557 17.7034 50.4809 17.6427C50.5899 17.6135 50.6858 17.5482 50.753 17.4576C50.8201 17.3669 50.8545 17.2561 50.8506 17.1434C50.8467 17.0306 50.8047 16.9225 50.7315 16.8367C50.6582 16.7509 50.558 16.6924 50.4473 16.6708C49.9922 16.5783 49.5709 16.3637 49.2284 16.0502C48.8858 15.7366 48.635 15.3358 48.5027 14.8907C48.7513 14.9533 49.0064 14.9897 49.2615 14.9982C49.4811 14.9972 49.6848 14.8627 49.753 14.6515C49.8212 14.4403 49.7408 14.2076 49.5549 14.0843C49.1152 13.7913 48.7767 13.3698 48.5855 12.8773C48.3943 12.3847 48.3599 11.8452 48.4868 11.3323C50.11 12.9978 52.3018 13.9896 54.6243 14.1095C54.7887 14.1104 54.9327 14.0516 55.0326 13.931C55.1326 13.8105 55.1709 13.6507 55.1354 13.4974C55.0076 12.947 55.0648 12.3699 55.2981 11.8552C55.5314 11.3406 55.9278 10.9172 56.4259 10.6506C56.9241 10.3839 57.4962 10.2889 58.0539 10.3802C58.6115 10.4715 59.1234 10.7441 59.5105 11.1557C59.5686 11.2176 59.6414 11.2637 59.7221 11.2897C59.8029 11.3157 59.8889 11.3207 59.9722 11.3043C60.1263 11.2734 60.2787 11.2379 60.4291 11.1968C60.3613 11.2476 60.2908 11.2947 60.2179 11.3379C60.121 11.3973 60.0472 11.4879 60.0087 11.5948C59.9702 11.7017 59.9693 11.8185 60.006 11.926C60.0428 12.0336 60.1151 12.1253 60.2111 12.1863C60.307 12.2472 60.4208 12.2736 60.5338 12.2612L60.7038 12.2397C60.6102 12.3168 60.5139 12.3907 60.4151 12.4611Z" fill="black"/>
<path d="M54.2964 0C46.0349 0 39.3125 6.72058 39.3125 14.983C39.3125 23.2454 46.0349 29.966 54.2964 29.966C62.5579 29.966 69.2804 23.2454 69.2804 14.983C69.2804 6.72058 62.5579 0 54.2964 0ZM54.2964 28.968C46.5853 28.968 40.3124 22.6941 40.3124 14.983C40.3124 7.2719 46.5853 0.997995 54.2964 0.997995C62.0075 0.997995 68.2805 7.2719 68.2805 14.983C68.2805 22.6941 62.0075 28.968 54.2964 28.968Z" fill="black"/>
</svg>
